<?xml version="1.0" encoding="UTF-8"?>
<svg width="12px" height="8px" viewBox="0 0 12 8" version="1.1" xmlns="http://www.w3.org/2000/svg" xmlns:xlink="http://www.w3.org/1999/xlink">
    <title>Shape Copy</title>
    <g id="Page-1" stroke="none" stroke-width="1" fill="none" fill-rule="evenodd">
        <g id="Space-Fix-Copy" transform="translate(-170.000000, -248.000000)" fill="#FFFFFF" fill-rule="nonzero">
            <path d="M175.333333,256 L176.666667,256 C177.033333,256 177.333333,255.7 177.333333,255.333333 C177.333333,254.966667 177.033333,254.666667 176.666667,254.666667 L175.333333,254.666667 C174.966667,254.666667 174.666667,254.966667 174.666667,255.333333 C174.666667,255.7 174.966667,256 175.333333,256 Z M170,248.666667 C170,249.033333 170.3,249.333333 170.666667,249.333333 L181.333333,249.333333 C181.7,249.333333 182,249.033333 182,248.666667 C182,248.3 181.7,248 181.333333,248 L170.666667,248 C170.3,248 170,248.3 170,248.666667 Z M172.666667,252.666667 L179.333333,252.666667 C179.7,252.666667 180,252.366667 180,252 C180,251.633333 179.7,251.333333 179.333333,251.333333 L172.666667,251.333333 C172.3,251.333333 172,251.633333 172,252 C172,252.366667 172.3,252.666667 172.666667,252.666667 Z" id="Shape-Copy"></path>
        </g>
    </g>
</svg>