<?xml version="1.0" encoding="UTF-8"?>
<svg viewBox="0 0 51 51" version="1.1" xmlns="http://www.w3.org/2000/svg" xmlns:xlink="http://www.w3.org/1999/xlink">
    <title>Httpx-Blk</title>
    <g id="Artboard"  fill="#ffffff" fill-rule="nonzero">
        <path d="M1.47442558,28.2646158 L20.3156839,28.2646158 C21.1280928,28.2646158 21.7866961,28.9232072 21.7866961,29.7356162 L21.7866961,48.574668 C21.7894462,49.176372 21.4254751,49.7190956 20.8677444,49.9449093 C20.3100138,50.170723 19.6709863,50.0340929 19.25436,49.5999526 L0.435166573,30.7800237 C0.0115238365,30.3598438 -0.116331244,29.7253755 0.111510421,29.1739116 C0.339352086,28.6224476 0.877749476,28.2632467 1.47442558,28.2646158 Z M23.5518762,20.7669507 C23.5518762,19.9529169 24.2117809,19.2930122 25.0258146,19.2930122 C25.8398484,19.2930122 26.4997531,19.9529169 26.4997531,20.7669507 L26.4997531,23.554489 L29.2865559,23.554489 C30.1005897,23.554489 30.7604944,24.2143937 30.7604944,25.0284274 C30.7604944,25.8424612 30.1005897,26.5023659 29.2865559,26.5023659 L26.4997531,26.5023659 L26.4997531,29.2899042 C26.4997531,30.103938 25.8398484,30.7638427 25.0258146,30.7638427 C24.2117809,30.7638427 23.5518762,30.103938 23.5518762,29.2899042 L23.5518762,26.5023659 L20.7643378,26.5023659 C19.9503041,26.5023659 19.2903994,25.8424612 19.2903994,25.0284274 C19.2903994,24.2143937 19.9503041,23.554489 20.7643378,23.554489 L23.5518762,23.554489 L23.5518762,20.7669507 L23.5518762,20.7669507 Z M48.5742617,21.7929707 L29.7352098,21.7929707 C28.9228009,21.7929707 28.2642011,21.1343831 28.2642011,20.3219742 L28.2642011,1.47703839 C28.2617636,0.875667851 28.6256174,0.33336662 29.1830149,0.10762224 C29.7404124,-0.11812214 30.3790893,0.0181571022 30.7957983,0.451753851 L49.6164627,19.2760957 C50.0404928,19.6966519 50.1681661,20.33184 49.9395671,20.883575 C49.7109681,21.43531 49.1714739,21.7940723 48.5742617,21.7914997 L48.5742617,21.7929707 Z M31.2091483,18.8450938 L45.0159212,18.8450938 L31.2091483,5.03758536 L31.2091483,18.8450938 Z M18.842481,31.2117611 L5.03423705,31.2117611 L18.842481,45.018534 L18.842481,31.2117611 Z" id="Shape"></path>
    </g>
</svg>