<?xml version="1.0" encoding="UTF-8"?>
<svg width="16px" height="19px" viewBox="0 0 16 19" version="1.1" xmlns="http://www.w3.org/2000/svg" xmlns:xlink="http://www.w3.org/1999/xlink">
    <title>Group 24</title>
        <g id="Synth-Theme-(Title-Change)" transform="translate(-648.000000, -308.000000)" fill="">
            <g id="split-view.1" transform="translate(648.000000, 308.000000)">
                <path d="M1.72727273,2.76363636 C1.34569227,2.76363636 1.03636364,3.072965 1.03636364,3.45454545 L1.03636364,15.5454545 C1.03636364,15.9270091 1.34569227,16.2363636 1.72727273,16.2363636 L5.18217227,16.2363636 L5.18217227,17.2727273 L1.72727273,17.2727273 C0.773325909,17.2727273 0,16.4994273 0,15.5454545 L0,3.45454545 C0,2.50059864 0.773325909,1.72727273 1.72727273,1.72727273 L5.18217227,1.72727273 L5.18217227,2.76363636 L1.72727273,2.76363636 Z" id="Path" fill-rule="nonzero"></path>
                <path d="M13.8181818,16.2363636 C14.1997364,16.2363636 14.5090909,15.9270091 14.5090909,15.5454545 L15.5454545,15.5454545 C15.5454545,16.4994273 14.7721545,17.2727273 13.8181818,17.2727273 L13.8181818,16.2363636 Z" id="Path" fill-rule="nonzero"></path>
                <path d="M14.5090909,3.45454545 C14.5090909,3.072965 14.1997364,2.76363636 13.8181818,2.76363636 L13.8181818,1.72727273 C14.7721545,1.72727273 15.5454545,2.50059864 15.5454545,3.45454545 L14.5090909,3.45454545 Z" id="Path" fill-rule="nonzero"></path>
                <polygon id="Path" fill-rule="nonzero" points="10.3485227 2.76363636 10.3485227 1.72727273 12.0833091 1.72727273 12.0833091 2.76363636"></polygon>
                <polygon id="Path" fill-rule="nonzero" points="10.3485227 17.2727273 10.3485227 16.2363636 12.0833091 16.2363636 12.0833091 17.2727273"></polygon>
                <polygon id="Path" fill-rule="nonzero" points="15.5454545 13.8085955 14.5090909 13.8085955 14.5090909 12.10775 15.5454545 12.10775"></polygon>
                <polygon id="Path" fill-rule="nonzero" points="15.5454545 10.3582818 14.5090909 10.3582818 14.5090909 8.63308182 15.5454545 8.63308182"></polygon>
                <polygon id="Path" fill-rule="nonzero" points="15.5454545 6.90794227 14.5090909 6.90794227 14.5090909 5.18123955 15.5454545 5.18123955"></polygon>
                <polygon id="Path" points="7.25454545 19 7.25454545 0 8.29090909 0 8.29090909 19"></polygon>
            </g>
        </g>
̧</svg>