<?xml version="1.0" encoding="UTF-8"?>
<svg width="11px" height="14px" viewBox="0 0 11 14" version="1.1" xmlns="http://www.w3.org/2000/svg" xmlns:xlink="http://www.w3.org/1999/xlink">
    <title>settings-power-sharp-24px</title>
    <g id="Page-1" stroke="none" stroke-width="1" fill="none" fill-rule="evenodd">
        <g id="Space-Fix" transform="translate(-1018.000000, -19.000000)" fill="#FFFFFF" fill-rule="nonzero">
            <g id="Group-28" transform="translate(1018.000000, 16.000000)">
                <g id="settings-power-sharp-24px" transform="translate(0.000000, 3.000000)">
                    <path d="M1.90909091,14 L3.18181818,14 L3.18181818,12.7272727 L1.90909091,12.7272727 L1.90909091,14 Z M4.45454545,14 L5.72727273,14 L5.72727273,12.7272727 L4.45454545,12.7272727 L4.45454545,14 Z M5.72727273,0 L4.45454545,0 L4.45454545,6.36363636 L5.72727273,6.36363636 L5.72727273,0 Z M7.99272727,1.55272727 L7.07,2.47545455 C8.17090909,3.14363636 8.90909091,4.34636364 8.90909091,5.72727273 C8.90909091,7.83363636 7.19727273,9.54545455 5.09090909,9.54545455 C2.98454545,9.54545455 1.27272727,7.83363636 1.27272727,5.72727273 C1.27272727,4.34636364 2.01090909,3.14363636 3.10545455,2.46909091 L2.18909091,1.55272727 C0.865454545,2.46909091 0,3.99636364 0,5.72727273 C0,8.54 2.27818182,10.8181818 5.09090909,10.8181818 C7.90363636,10.8181818 10.1818182,8.54 10.1818182,5.72727273 C10.1818182,3.99636364 9.31636364,2.46909091 7.99272727,1.55272727 Z M7,14 L8.27272727,14 L8.27272727,12.7272727 L7,12.7272727 L7,14 Z" id="Shape"></path>
                </g>
            </g>
        </g>
    </g>
</svg>